<?xml version="1.0" encoding="UTF-8"?>
<svg width="752pt" height="752pt" version="1.1" viewBox="0 0 752 752" xmlns="http://www.w3.org/2000/svg">
 <g>
  <path d="m464.24 403.29c-0.74219 0-1.5 0.046875-2.2461 0.15234-9.3398 1.25-15.922 9.8555-14.68 19.195 1.1289 8.4531 8.4141 14.828 16.949 14.828 0.75 0 1.5-0.046876 2.25-0.14844 9.3359-1.25 15.918-9.8555 14.68-19.199-1.1289-8.4531-8.418-14.828-16.953-14.828z"/>
  <path d="m487.67 300.62c-7.6211-5.0352-17.68-7.6953-29.105-7.6953-3.3594 0-6.8086 0.23047-10.258 0.69141-11.402 1.5195-22.465 7.043-30.355 15.141-8 8.2227-11.887 18.258-10.645 27.527 0.91016 6.8438 6.0625 11.266 13.121 11.266 0.75781 0 1.5312-0.058593 2.3008-0.15625 9.4336-1.2578 11.469-7.7578 13.43-14.035 2.2383-7.1602 4.3516-13.918 16.543-15.547 1.25-0.16406 2.4688-0.25 3.6211-0.25 8.7773 0 14.223 4.6328 15.344 13.043 1.0977 8.2305-5.4102 14.793-12.301 21.742-7.7344 7.8008-16.5 16.637-14.828 29.172 0.42969 3.2305 1.8555 6.2422 4.0078 8.4805 2.4688 2.5703 5.6953 3.9297 9.3398 3.9297 0.66797 0 1.3594-0.042969 2.0469-0.13672 9.8711-1.3164 11.215-7.043 12.512-12.586 0.49219-2.0938 1.0039-4.2617 1.9883-6.2148 1.3672-2.7266 4.793-5.9297 8.7656-9.6328 9.4805-8.8594 22.461-20.992 20.062-38.965-1.5-11.258-6.7539-19.93-15.59-25.773z"/>
  <path d="m593.66 449.91-26.441-198.14c-1.3594-10.168-10.109-17.84-20.363-17.84-0.90625 0-1.8281 0.0625-2.7344 0.18359l-198.14 26.441c-11.234 1.5-19.152 11.859-17.656 23.098l1.5117 11.336-129.96-18.777c-0.75781-0.10938-1.5312-0.16406-2.293-0.16406-7.8672 0-14.645 5.8789-15.773 13.668l-22.172 153.48c-0.60547 4.2188 0.46484 8.4141 3.0117 11.828 2.5508 3.4102 6.2734 5.625 10.496 6.2305l153.48 22.172c0.76172 0.10547 1.5352 0.15625 2.293 0.15625 7.8672 0 14.645-5.8672 15.77-13.664l4.4141-30.559 5.6602 42.418c1.3594 10.172 10.109 17.84 20.359 17.84 0.91016 0 1.832-0.058593 2.7383-0.17578l198.14-26.449c5.4336-0.71875 10.273-3.5234 13.605-7.8867 3.3438-4.3477 4.7734-9.75 4.0508-15.191zm-262.07 18.129c-0.20703 1.4531-1.582 2.5039-3.0625 2.2891l-153.48-22.176c-0.97266-0.13672-1.5312-0.71875-1.7812-1.0547-0.25-0.33594-0.64844-1.0469-0.51172-2.0117l22.172-153.48c0.19531-1.3203 1.3398-2.3203 2.668-2.3203 0.13281 0 0.26953 0.007812 0.39844 0.027344l133.67 19.309 11.023 82.613zm244.47-13.297c-0.32812 0.42969-1.0664 1.1758-2.3125 1.3398l-198.14 26.445c-1.918 0.26562-3.6641-1.1133-3.9219-2.9961l-26.441-198.14c-0.25391-1.9102 1.0898-3.6641 2.9961-3.9219l198.14-26.445c0.16406-0.019532 0.31641-0.027344 0.48438-0.027344 1.7344 0 3.2188 1.3008 3.4492 3.0312l26.449 198.14c0.15625 1.2461-0.37891 2.1445-0.69922 2.5703z"/>
  <path d="m296.25 333.79c-6.082-5.5703-15.09-9.457-25.355-10.941-1.875-0.27344-3.8047-0.41016-5.7227-0.41016-8.0664 0-15.992 2.3672-22.34 6.668-6.5195 4.4219-10.637 10.434-11.57 16.918-0.44531 3.082 0.28906 5.8281 2.1328 7.9531 1.6562 1.9023 4.1523 3.1875 7.0312 3.6055 0.72266 0.10547 1.4219 0.16016 2.082 0.16016 5.8125 0 8.4062-3.9648 10.918-7.7969 2.8008-4.2891 5.4492-8.3438 12.504-8.3438 0.97656 0 2.0312 0.082031 3.125 0.23828 8.3555 1.2031 12.527 6.1484 11.453 13.562-0.91406 6.3711-7.1641 9.8984-13.773 13.625-7.4219 4.1875-15.836 8.9336-17.238 18.645-0.39453 2.707 0.15625 5.5312 1.5156 7.7344 1.1133 1.8086 3.293 4.0859 7.375 4.6797 0.85156 0.11719 1.6641 0.18359 2.4102 0.18359h0.003906c5.7383 0 7.6953-3.5273 9.582-6.9375 0.80859-1.4648 1.6445-2.9727 2.793-4.2188 1.5977-1.7461 4.8359-3.4141 8.582-5.3438 8.9492-4.6016 21.211-10.922 23.219-24.836 1.4258-9.9062-1.5859-18.602-8.7266-25.145z"/>
  <path d="m257.88 407.71c-0.625-0.089844-1.2539-0.14063-1.8789-0.14063-6.5508 0-12.199 4.8906-13.137 11.367-1.0391 7.2305 3.9961 13.965 11.23 15.012 0.625 0.09375 1.2578 0.13281 1.8789 0.13281 6.5547 0 12.203-4.8828 13.137-11.355 1.0352-7.2344-3.9961-13.961-11.23-15.016z"/>
 </g>
</svg>
